# xmcd
#
# Track frame offsets:
#	150
#	31677
#	51750
#	72622
#	94237
#	115472
#	130027
#	151985
#	172840
#	201292
#	223712
#
# Disc length: 3043 seconds
#
# Revision: 1
# Processed by: cddbd v1.4PL0 Copyright (c) Steve Scherf et al.
# Submitted via: CDmax 1.8
#
DISCID=990be10b
DTITLE=Nuno Mindelis and The Cream Crackers
DYEAR=1900
DGENRE=Blues
TTITLE0=Talk about the blues
TTITLE1=Don't hide away
TTITLE2=Pay the cost to be the boss
TTITLE3=Three days straight
TTITLE4=It's your fault
TTITLE5=Dog's day night
TTITLE6=Answer to Ronnie
TTITLE7=Talk about somebody
TTITLE8=It's my turn
TTITLE9=Blues time
TTITLE10=Iberic blues
EXTD=
EXTT0=
EXTT1=
EXTT2=
EXTT3=
EXTT4=
EXTT5=
EXTT6=
EXTT7=
EXTT8=
EXTT9=
EXTT10=
PLAYORDER=
